<?xml version="1.0" standalone="no"?>
<!DOCTYPE svg PUBLIC "-//W3C//DTD SVG 20010904//EN"
 "http://www.w3.org/TR/2001/REC-SVG-20010904/DTD/svg10.dtd">
<svg version="1.0" xmlns="http://www.w3.org/2000/svg"
 width="421.000000pt" height="421.000000pt" viewBox="0 0 421.000000 421.000000"
 preserveAspectRatio="xMidYMid meet">
<metadata>
Created by potrace 1.11, written by Peter Selinger 2001-2013
</metadata>
<g transform="translate(0.000000,421.000000) scale(0.100000,-0.100000)"
fill="#000000" stroke="none">
<path d="M1380 4187 c0 -8 -45 -60 -101 -115 -57 -56 -101 -108 -102 -120 0
-11 -4 -19 -7 -17 -3 2 -14 -3 -25 -11 -10 -8 -15 -14 -10 -14 4 0 -2 -9 -15
-20 -13 -11 -27 -20 -32 -20 -5 0 -6 -4 -3 -10 3 -5 1 -10 -4 -10 -6 0 -10 -3
-9 -7 1 -5 -4 -21 -10 -36 -7 -16 -12 -35 -12 -43 0 -8 -4 -14 -9 -14 -5 0 -8
-11 -6 -25 1 -14 -2 -25 -6 -25 -5 0 -7 -13 -5 -30 2 -16 1 -32 -2 -35 -9 -9
-10 -55 -1 -55 9 0 7 -20 -4 -37 -4 -6 -3 -14 3 -18 5 -3 10 -11 10 -16 0 -6
-6 -7 -12 -3 -10 6 -10 4 -2 -7 6 -8 12 -21 12 -29 1 -8 3 -31 4 -52 2 -20 0
-34 -4 -32 -5 3 -8 -5 -8 -17 0 -12 -3 -20 -6 -16 -7 7 -160 -145 -156 -155 1
-5 -3 -8 -8 -8 -6 0 -10 -7 -10 -16 0 -8 -4 -12 -10 -9 -5 3 -10 2 -10 -3 0
-9 -25 -42 -56 -74 -9 -9 -13 -21 -9 -27 3 -6 -1 -11 -10 -11 -9 0 -14 -4 -11
-8 3 -5 -4 -19 -15 -30 -11 -12 -16 -22 -12 -22 4 0 0 -5 -10 -11 -9 -6 -15
-14 -12 -20 4 -5 -1 -12 -9 -15 -9 -3 -13 -10 -10 -15 3 -5 -2 -12 -10 -15 -9
-3 -16 -10 -16 -16 0 -5 6 -6 13 -2 8 5 8 3 -2 -9 -7 -9 -17 -14 -22 -11 -5 3
-6 -2 -3 -10 3 -9 -1 -23 -10 -32 -9 -8 -14 -20 -11 -25 4 -5 1 -9 -6 -9 -7 0
-9 -3 -6 -7 4 -3 2 -12 -4 -20 -6 -7 -9 -13 -6 -13 3 0 -3 -17 -13 -37 -10
-20 -17 -49 -16 -64 1 -16 -2 -25 -8 -22 -5 4 -7 -1 -3 -10 3 -9 2 -19 -3 -22
-6 -4 -10 -11 -10 -16 0 -6 4 -7 10 -4 6 3 7 -1 4 -9 -3 -9 -11 -16 -18 -16
-6 0 -4 -5 4 -10 8 -5 10 -10 3 -10 -6 0 -9 -9 -6 -20 3 -11 0 -20 -6 -20 -7
0 -8 -8 -1 -26 6 -14 6 -23 2 -20 -10 6 -13 -34 -15 -167 -2 -66 -6 -90 -17
-97 -8 -5 -11 -10 -6 -10 5 0 -3 -11 -18 -25 -15 -14 -24 -25 -21 -25 4 0 -3
-13 -15 -30 -12 -16 -18 -34 -15 -40 3 -5 0 -10 -7 -10 -9 0 -9 -3 2 -10 11
-7 11 -10 2 -10 -7 0 -11 -4 -7 -9 3 -5 1 -12 -4 -15 -15 -10 -14 -206 2 -222
4 -4 2 -13 -4 -21 -9 -9 -8 -13 0 -13 9 0 9 -5 1 -20 -8 -15 -8 -20 1 -20 8 0
8 -4 -1 -15 -7 -8 -9 -15 -4 -15 5 0 10 -24 11 -53 1 -61 7 -88 26 -126 7 -15
13 -35 11 -44 -1 -9 2 -17 7 -17 6 0 8 -4 5 -9 -3 -5 1 -12 10 -15 8 -3 12
-10 9 -16 -3 -5 -1 -10 4 -10 6 0 11 -6 12 -12 0 -21 57 -59 92 -63 45 -4 67
-15 68 -34 1 -9 2 -41 3 -71 1 -30 5 -61 10 -69 6 -10 6 -12 -2 -7 -8 5 -12
-4 -12 -26 0 -19 -5 -39 -12 -46 -9 -9 -9 -12 -1 -12 11 0 10 -37 -1 -48 -3
-2 -1 -13 5 -23 7 -14 6 -19 -3 -19 -8 0 -9 -3 -3 -8 6 -4 10 -23 10 -42 0
-19 7 -40 15 -47 12 -9 12 -14 3 -24 -10 -10 -9 -15 5 -25 11 -9 12 -13 4 -14
-9 0 -9 -6 3 -23 8 -13 12 -27 8 -30 -3 -4 -1 -7 5 -7 7 0 12 -5 12 -11 0 -5
-6 -7 -12 -3 -7 4 -5 -2 4 -13 10 -11 18 -25 18 -31 0 -7 5 -12 10 -12 6 0 10
-9 10 -20 0 -11 7 -23 16 -27 8 -3 13 -12 10 -19 -3 -8 1 -14 10 -14 8 0 12
-5 9 -10 -3 -6 1 -13 10 -16 13 -6 14 -8 3 -15 -10 -7 -9 -9 5 -9 10 0 15 -5
12 -10 -3 -6 -1 -10 5 -10 6 0 9 -4 6 -9 -3 -5 0 -11 8 -14 8 -3 22 -22 31
-41 10 -20 21 -33 26 -30 5 3 9 -5 9 -16 0 -16 5 -20 15 -16 8 3 14 2 12 -2
-4 -14 32 -54 42 -47 7 3 10 2 9 -3 -2 -5 8 -21 22 -34 38 -37 65 -72 62 -80
-1 -5 5 -8 14 -8 8 0 12 -5 9 -10 -3 -6 0 -10 7 -10 7 0 24 -14 38 -31 50 -62
57 -69 64 -62 3 3 6 1 6 -6 0 -7 4 -10 9 -7 5 3 11 -1 15 -9 3 -8 12 -15 19
-15 8 0 20 -7 27 -15 7 -8 16 -12 21 -9 5 3 9 0 9 -6 0 -6 4 -8 10 -5 5 3 10
1 10 -4 0 -6 5 -11 11 -11 5 0 7 6 4 13 -4 6 -1 5 7 -3 10 -12 36 -15 108 -15
52 0 101 -4 108 -9 7 -5 12 -5 12 1 0 12 53 11 62 -2 5 -7 8 -6 8 1 0 6 21 11
48 11 74 2 126 8 140 16 6 5 12 5 12 1 0 -3 7 -1 15 6 8 7 15 9 15 5 0 -4 8
-1 17 6 10 8 14 9 10 2 -4 -7 6 -5 25 5 18 9 39 17 47 18 8 2 17 7 20 12 6 9
37 23 61 28 8 2 16 8 18 14 2 5 8 8 13 4 5 -3 12 2 15 10 3 9 10 13 15 10 5
-3 9 0 9 5 0 6 9 11 20 11 11 0 20 3 20 8 0 7 111 97 120 97 3 0 22 16 42 35
20 19 52 48 71 65 20 16 33 33 31 37 -2 4 3 11 12 16 9 5 16 13 16 18 0 5 4 8
10 6 5 -1 8 3 6 10 -3 7 5 21 17 33 12 11 27 30 34 42 6 13 19 23 27 23 8 0
12 5 9 10 -3 5 1 10 10 10 11 0 15 5 11 15 -3 8 0 15 7 15 7 0 18 9 25 21 11
17 11 20 0 14 -7 -4 -2 3 12 14 14 11 21 21 16 21 -5 0 6 13 25 29 25 22 37
27 46 19 9 -7 13 -7 13 1 0 6 11 11 24 11 14 0 28 5 31 10 4 6 10 8 14 6 18
-11 119 98 137 147 3 9 13 17 20 17 8 0 17 7 21 16 6 16 33 50 73 93 30 32
100 136 117 173 6 15 10 37 8 48 -2 11 0 20 4 20 9 0 14 85 6 111 -4 11 -12
18 -19 16 -14 -6 -38 41 -25 49 5 3 7 10 4 15 -4 5 -1 9 6 9 7 0 9 8 6 21 -3
12 -3 18 0 15 3 -3 20 23 38 58 18 36 42 77 54 91 11 15 21 32 21 37 0 5 22
55 49 111 54 113 65 138 63 150 -1 4 2 7 7 7 8 0 35 54 37 75 1 6 7 24 15 42
8 18 14 47 14 65 -1 18 4 36 9 40 7 5 7 8 -1 8 -9 0 -10 7 -3 24 5 13 6 27 2
30 -3 4 -7 46 -8 94 -1 48 -5 105 -9 127 -4 22 -8 85 -9 140 -1 78 2 99 12 97
8 -1 11 2 7 8 -3 5 -1 10 5 10 6 0 8 5 5 10 -6 9 8 14 28 11 4 0 6 2 6 6 -3
19 2 36 8 30 3 -4 22 10 41 30 20 21 32 32 27 24 -5 -10 -4 -12 3 -7 7 4 12
14 12 22 0 8 3 13 8 11 4 -3 13 1 20 9 7 8 9 14 5 14 -4 0 -3 4 2 8 6 4 24 29
40 56 17 28 43 70 58 95 15 25 33 58 40 74 6 15 15 27 20 27 4 0 6 4 2 9 -3 5
-1 12 5 16 6 4 8 11 5 16 -4 5 -2 9 3 9 5 0 9 6 10 13 0 6 3 30 7 52 19 119
-5 282 -48 331 -30 33 -34 41 -30 64 1 14 0 20 -4 14 -15 -20 -41 -23 -55 -6
-12 16 -11 16 7 2 20 -15 20 -15 0 8 -18 22 -20 22 -32 5 -7 -10 -17 -23 -23
-30 -5 -7 -10 -17 -10 -23 0 -6 -5 -8 -12 -4 -8 5 -9 2 -5 -9 3 -9 3 -16 -1
-15 -4 1 -17 -3 -29 -10 -13 -7 -23 -10 -23 -6 0 3 -7 1 -15 -6 -8 -6 -19 -9
-24 -6 -5 4 -14 -2 -20 -11 -6 -10 -11 -14 -11 -9 0 5 -7 3 -15 -4 -8 -6 -20
-8 -26 -4 -7 4 -9 3 -6 -2 3 -6 -14 -19 -39 -30 -24 -10 -44 -23 -44 -27 0 -5
-4 -5 -10 -2 -5 3 -10 1 -10 -4 0 -6 -7 -11 -16 -11 -9 0 -30 -10 -47 -22 -18
-13 -28 -16 -23 -7 4 7 1 6 -8 -5 -8 -10 -21 -16 -29 -13 -8 3 -19 1 -25 -5
-19 -19 -78 -26 -97 -12 -14 10 -22 11 -32 3 -7 -6 -13 -8 -13 -4 0 4 -7 2
-15 -5 -22 -18 -73 -5 -140 35 -31 19 -61 35 -66 35 -5 0 -9 5 -9 10 0 6 -7
10 -15 10 -8 0 -15 6 -15 13 0 9 -3 8 -9 -2 -7 -11 -10 -9 -16 9 -5 15 -10 19
-15 10 -5 -8 -9 -7 -14 6 -6 15 -9 16 -16 4 -8 -12 -10 -12 -16 3 -3 9 -15 17
-25 17 -10 0 -19 5 -19 10 0 6 -9 10 -20 10 -11 0 -20 4 -20 9 0 5 -7 12 -16
15 -10 4 -13 2 -9 -7 4 -6 0 -4 -8 5 -8 10 -17 15 -20 11 -4 -3 -7 -1 -7 5 0
7 -3 11 -7 11 -20 -4 -73 15 -73 25 0 6 -5 4 -10 -4 -5 -8 -10 -10 -10 -4 0
14 -33 14 -42 0 -5 -7 -8 -5 -8 6 0 9 -5 20 -12 24 -7 4 -8 3 -4 -5 6 -8 -2
-11 -28 -8 -22 3 -36 0 -36 -7 0 -6 -5 -4 -10 4 -8 12 -10 12 -10 1 0 -10 -3
-11 -13 -3 -7 6 -22 9 -32 8 -11 -2 -28 1 -39 6 -14 8 -17 7 -10 -4 6 -10 5
-11 -7 -1 -12 10 -18 10 -27 1 -9 -9 -12 -9 -12 0 0 7 -8 12 -17 12 -10 0 -33
9 -51 20 -18 11 -39 20 -48 20 -12 0 -13 4 -3 21 15 30 -3 49 -31 31 -39 -24
-70 -12 -77 29 -1 9 -15 30 -30 46 -16 17 -39 52 -53 79 -14 27 -34 57 -45 67
-11 9 -42 39 -70 65 -46 44 -126 102 -141 102 -3 0 -28 11 -54 24 -64 32 -140
45 -140 23z m67 -43 c-3 -3 -12 -4 -19 -1 -8 3 -5 6 6 6 11 1 17 -2 13 -5z"/>
</g>
</svg>
